<svg width="43" height="43" viewBox="0 0 43 43" fill="none" xmlns="http://www.w3.org/2000/svg">
<path d="M21.5002 3.58301C11.6102 3.58301 3.5835 11.6097 3.5835 21.4997C3.5835 31.3897 11.6102 39.4163 21.5002 39.4163C31.3902 39.4163 39.4168 31.3897 39.4168 21.4997C39.4168 11.6097 31.3902 3.58301 21.5002 3.58301ZM21.5002 8.95801C24.4743 8.95801 26.8752 11.3588 26.8752 14.333C26.8752 17.3072 24.4743 19.708 21.5002 19.708C18.526 19.708 16.1252 17.3072 16.1252 14.333C16.1252 11.3588 18.526 8.95801 21.5002 8.95801ZM21.5002 34.3997C17.021 34.3997 13.0614 32.1063 10.7502 28.6305C10.8039 25.0651 17.9168 23.1122 21.5002 23.1122C25.0656 23.1122 32.1964 25.0651 32.2502 28.6305C29.9389 32.1063 25.9793 34.3997 21.5002 34.3997Z" fill="#7D28C3"/>
</svg>
