<svg width="80" height="80" viewBox="0 0 80 80" fill="none" xmlns="http://www.w3.org/2000/svg">
<path d="M53.738 40.333C59.2714 40.333 63.7047 35.8663 63.7047 30.333C63.7047 24.7997 59.2714 20.333 53.738 20.333C48.2047 20.333 43.738 24.7997 43.738 30.333C43.738 35.8663 48.2047 40.333 53.738 40.333ZM27.0714 40.333C32.6047 40.333 37.038 35.8663 37.038 30.333C37.038 24.7997 32.6047 20.333 27.0714 20.333C21.538 20.333 17.0714 24.7997 17.0714 30.333C17.0714 35.8663 21.538 40.333 27.0714 40.333ZM27.0714 46.9997C19.3047 46.9997 3.73804 50.8997 3.73804 58.6663V66.9997H50.4047V58.6663C50.4047 50.8997 34.838 46.9997 27.0714 46.9997ZM53.738 46.9997C52.7714 46.9997 51.6714 47.0663 50.5047 47.1663C54.3714 49.9663 57.0714 53.733 57.0714 58.6663V66.9997H77.0714V58.6663C77.0714 50.8997 61.5047 46.9997 53.738 46.9997Z" fill="#431568"/>
</svg>
