<svg width="42" height="43" viewBox="0 0 42 43" fill="none" xmlns="http://www.w3.org/2000/svg">
<path d="M36.9155 9.58775H20.8982L19.2964 4.76746H8.08432C6.32242 4.76746 4.88086 6.21354 4.88086 7.98099V32.0825C4.88086 33.8499 6.32242 35.296 8.08432 35.296H20.8982L22.4999 40.1163H36.9155C38.6774 40.1163 40.119 38.6702 40.119 36.9028V12.8013C40.119 11.0338 38.6774 9.58775 36.9155 9.58775ZM14.4912 28.8689C10.0705 28.8689 6.48259 25.2698 6.48259 20.8351C6.48259 16.4004 10.0705 12.8013 14.4912 12.8013C16.6536 12.8013 18.4635 13.6047 19.857 14.8901L17.7428 16.9307C17.1341 16.3522 16.077 15.6774 14.4912 15.6774C11.7042 15.6774 9.44579 17.9911 9.44579 20.8351C9.44579 23.6791 11.7042 25.9928 14.4912 25.9928C17.7107 25.9928 19.0402 23.6791 19.1683 22.1205H14.4912V19.373H21.9874C22.0995 19.8711 22.1796 20.3531 22.1796 21.0119C22.1796 25.6072 19.1203 28.8689 14.4912 28.8689ZM24.3739 20.1603H30.3003C29.6116 22.1687 28.5224 24.0647 27.0168 25.7357C26.5203 25.1734 26.0558 24.5789 25.6393 23.9683L24.3739 20.1603ZM37.7164 36.0994C37.7164 36.9831 36.9956 37.7062 36.1146 37.7062H25.7034L28.9068 33.6892L27.241 28.7083L32.2064 33.6892L33.68 32.211L28.3943 26.989L28.4263 26.9569C30.2363 24.9484 31.5177 22.6347 32.2705 20.1763H35.3138V18.0875H28.0579V16.0148H25.9917V18.0875H23.6852L21.635 11.9979H36.1146C36.9956 11.9979 37.7164 12.7209 37.7164 13.6047V36.0994Z" fill="#7D28C3"/>
</svg>
