
<svg width="80" height="80" viewBox="0 0 80 80" fill="none" xmlns="http://www.w3.org/2000/svg">
<path d="M53.3332 36.667C58.8666 36.667 63.2999 32.2003 63.2999 26.667C63.2999 21.1337 58.8666 16.667 53.3332 16.667C47.7999 16.667 43.3332 21.1337 43.3332 26.667C43.3332 32.2003 47.7999 36.667 53.3332 36.667ZM26.6666 36.667C32.1999 36.667 36.6332 32.2003 36.6332 26.667C36.6332 21.1337 32.1999 16.667 26.6666 16.667C21.1333 16.667 16.6666 21.1337 16.6666 26.667C16.6666 32.2003 21.1333 36.667 26.6666 36.667ZM26.6666 43.3337C18.8999 43.3337 3.33325 47.2337 3.33325 55.0003V63.3337H49.9999V55.0003C49.9999 47.2337 34.4332 43.3337 26.6666 43.3337ZM53.3332 43.3337C52.3666 43.3337 51.2666 43.4003 50.0999 43.5003C53.9666 46.3003 56.6666 50.067 56.6666 55.0003V63.3337H76.6666V55.0003C76.6666 47.2337 61.0999 43.3337 53.3332 43.3337Z" fill="#431568"/>
</svg>
