<svg width="90" height="80" viewBox="0 0 80 80" fill="none" xmlns="http://www.w3.org/2000/svg">
<path d="M73.9236 10.0007H57.6604C56.0263 6.13399 51.7465 3.33398 46.6886 3.33398C41.6307 3.33398 37.3509 6.13399 35.7168 10.0007H19.4536C15.1738 10.0007 11.6721 13.0007 11.6721 16.6673V63.334C11.6721 67.0007 15.1738 70.0007 19.4536 70.0007H73.9236C78.2034 70.0007 81.7051 67.0007 81.7051 63.334V16.6673C81.7051 13.0007 78.2034 10.0007 73.9236 10.0007ZM46.6886 10.0007C48.8285 10.0007 50.5793 11.5007 50.5793 13.334C50.5793 15.1673 48.8285 16.6673 46.6886 16.6673C44.5487 16.6673 42.7979 15.1673 42.7979 13.334C42.7979 11.5007 44.5487 10.0007 46.6886 10.0007ZM38.9072 56.6673L23.3443 43.334L28.8302 38.634L38.9072 47.234L64.547 25.2673L70.0329 30.0007L38.9072 56.6673Z" fill="#431568"/>
</svg>
